<svg width="100" height="100" viewBox="0 0 100 100" fill="none" xmlns="http://www.w3.org/2000/svg">
<circle cx="50" cy="50" r="50" fill="#35CFFF"/>
<circle cx="49" cy="51" r="49" fill="#471AFF"/>
<path d="M80 49.8C80 58.1947 72.6127 65 63.5 65C54.3873 65 47 58.1947 47 49.8C47 41.4053 54.3873 34.6 63.5 34.6C72.6127 34.6 80 41.4053 80 49.8Z" fill="#020202"/>
<path d="M66 47C66 56.9411 57.9411 65 48 65C38.0589 65 30 56.9411 30 47C30 37.0589 38.0589 29 48 29C57.9411 29 66 37.0589 66 47Z" fill="#020202"/>
<path d="M42 53.8C42 59.1019 36.6274 63.4 30 63.4C23.3726 63.4 18 59.1019 18 53.8C18 48.4981 23.3726 44.2 30 44.2C36.6274 44.2 42 48.4981 42 53.8Z" fill="#020202"/>
</svg>
